<svg aria-hidden="true" style="position:absolute;width:0;height:0" xmlns="http://www.w3.org/2000/svg" overflow="hidden"><defs><symbol id="icon-menu" viewBox="0 0 32 32"><path d="M6.4 11.734V9.6h19.2v2.134H6.4zm0 5.332h19.2v-2.133H6.4v2.133zm0 5.334h19.2v-2.134H6.4V22.4z"/></symbol><symbol id="icon-cross" viewBox="0 0 32 32"><path d="M32 3.223L28.777 0 16 12.777 3.223 0 0 3.223 12.777 16 0 28.777 3.223 32 16 19.223 28.777 32 32 28.777 19.223 16 32 3.223z"/></symbol><symbol id="icon-email-icon" viewBox="0 0 32 32"><path d="M26.667 5.333H5.334A2.662 2.662 0 002.682 8l-.014 16c0 1.467 1.2 2.667 2.667 2.667h21.333c1.467 0 2.667-1.2 2.667-2.667V8c0-1.467-1.2-2.667-2.667-2.667zm-.534 5.668l-9.426 5.892a1.343 1.343 0 01-1.421-.004l.006.003L5.866 11A1.133 1.133 0 117.07 9.083l-.004-.003 8.933 5.586 8.933-5.588a1.132 1.132 0 111.204 1.916l-.005.003z"/></symbol><symbol id="icon-iconsend" viewBox="0 0 32 32"><path d="M32 0L0 18l10.227 3.787L26 7 14.003 23.187l.009.003-.012-.003V32l5.735-6.691L27.002 28l4.999-28z"/></symbol><symbol id="icon-person-black" viewBox="0 0 32 32"><path d="M24 24a8 8 0 000-16 8 8 0 000 16zm0 4c-5.341 0-16 2.68-16 8v2c0 1.099.899 2 2 2h28c1.099 0 2-.901 2-2v-2c0-5.32-10.661-8-16-8z"/></symbol><symbol id="icon-phone-black" viewBox="0 0 32 32"><path d="M24.882 19.774l-3.268-.373a2.555 2.555 0 00-2.11.732l-2.368 2.368c-3.669-1.894-6.585-4.81-8.427-8.372l-.051-.108 2.382-2.377a2.552 2.552 0 00.731-2.122l.001.012-.373-3.243a2.578 2.578 0 00-2.557-2.276H6.613c-1.454 0-2.663 1.209-2.574 2.663.683 10.987 9.47 19.76 20.444 20.443 1.452.089 2.663-1.12 2.663-2.574v-2.226-.012a2.549 2.549 0 00-2.253-2.532l-.012-.001z"/></symbol><symbol id="icon-rectangle" viewBox="0 0 32 32"><path d="M28.444 4.334v23.332H3.556V4.334h24.888zm0-3.334H3.556C1.6 1 0 2.5 0 4.334v23.332C0 29.5 1.6 31 3.556 31h24.888C30.4 31 32 29.5 32 27.666V4.334C32 2.5 30.4 1 28.444 1z"/></symbol><symbol id="icon-tip" viewBox="0 0 32 32"><path stroke="var(--color1, #fff)" stroke-width=".492" d="M4.817 15.39l-.17-.162-.17.16-2.373 2.25.187.18 8.775 8.369.17-.162L29.894 8.226l-.187-.177-2.341-2.233-.17.162-16.13 15.375-6.25-5.962z"/></symbol></defs></svg>